<svg xmlns="http://www.w3.org/2000/svg" width="80" height="63" viewBox="0 0 80 63" fill="none">
<path d="M67.3065 17.534C67.3065 17.492 67.3065 17.492 67.3065 17.534V17.534ZM79.437 44.3182C79.6417 44.1923 79.7953 44.0663 80 43.9404C79.8976 43.8984 79.7441 43.8144 79.7441 43.7725C79.7953 43.6045 79.8976 43.4366 80 43.2687C79.6417 43.1008 79.3346 42.8069 78.8228 42.8069C78.7204 42.8069 78.5157 42.7229 78.4645 42.639C78.3109 42.3031 77.9015 42.1772 77.7991 41.8413C78.5157 41.2956 78.9763 40.7078 78.618 39.8682C78.5669 39.7842 78.6692 39.6163 78.6692 39.5323C78.6692 39.2385 78.4133 38.9026 78.1062 38.8186C77.7991 38.7347 77.492 38.7347 77.2873 38.9866C77.0825 38.9026 76.929 38.7767 76.7243 38.6927C76.2636 38.3988 76.0077 38.4408 75.4958 38.7347C75.4958 38.8186 75.547 38.9026 75.547 38.9866C75.3423 38.9866 75.1376 38.9026 75.1376 38.8606C75.2911 38.5667 74.8816 38.3149 75.0864 38.021C75.1376 37.895 75.0864 37.7271 75.0864 37.6012C74.6769 38.2309 74.2163 38.7767 73.2438 38.9026C73.1414 38.6927 73.0902 38.5248 73.2438 38.3568C73.5509 38.021 73.7044 37.6432 73.7556 37.2653C73.8068 37.0134 73.9092 36.8455 74.2674 36.7615C74.421 36.7196 74.5745 36.6776 74.7281 36.5936C74.8816 36.5097 75.0352 36.3837 74.7793 36.1738C74.5745 36.2158 74.3698 36.2997 74.1651 36.3417C74.1139 36.2578 74.0627 36.2158 74.0115 36.1318C73.858 36.2578 73.7044 36.2997 73.6021 36.3837C73.2438 36.0479 72.6807 35.8799 72.8343 35.3342C72.6296 35.3342 72.3736 35.712 72.2713 35.2082C72.7319 35.0823 73.1926 35.0403 73.5509 34.8304C73.9603 34.6205 74.2674 34.6205 74.6769 34.7045C74.6769 34.6625 74.7281 34.6205 74.7281 34.6205C74.4722 34.5365 74.2674 34.4106 74.0115 34.3266C74.0115 34.2846 74.0627 34.2007 74.0627 34.1587C73.3973 34.4526 72.7319 34.7044 72.0154 34.9983C71.8618 34.7884 71.7083 34.6205 71.6059 34.4526C71.5035 34.7884 71.2988 34.9563 70.8893 34.9983C70.6334 34.6625 71.0941 34.5785 71.1964 34.4106C71.0429 34.2427 70.9405 34.0327 70.7869 33.8648C71.1452 33.8648 71.1964 33.361 71.6571 33.5709C71.8106 34.2007 71.8106 34.2007 72.2201 34.3266C72.6807 33.8228 72.1689 33.403 72.0154 32.9832C71.8618 32.6893 71.8106 32.6054 72.1177 32.3955C72.4248 32.2275 72.5784 31.9337 72.5784 31.5978C72.3225 31.7238 72.1177 31.8917 71.8618 32.0176C71.7594 31.7238 71.8618 31.5558 72.0154 31.3879C72.8343 30.6742 73.6021 29.9186 74.4722 29.2469C74.984 28.827 75.1376 28.2393 75.7518 27.9454C75.8029 27.5256 76.2636 27.2317 76.4172 26.8959C76.5195 26.728 76.6219 26.56 76.7754 26.5181C77.4408 26.2662 77.3896 25.7624 77.5944 25.2586C77.4408 25.3426 77.2873 25.4265 77.1849 25.4685C77.1337 25.0907 77.0825 24.6709 77.3896 24.335C77.2873 24.2091 77.1849 24.0831 77.0825 24.0831C76.929 24.0411 76.6731 24.1251 76.6731 24.1671C76.6731 24.335 76.5195 24.5449 76.8266 24.6709C77.1337 24.8388 77.1337 25.0067 76.8778 25.1746C76.7243 25.2586 76.5707 25.3006 76.4683 25.3846C76.0589 25.6784 75.5982 26.0143 75.1887 26.3081C75.0352 26.3921 74.8816 26.3921 74.5745 26.4761C74.6257 26.2242 74.7281 26.0982 74.7281 25.9303C74.7281 25.7624 74.6769 25.6364 74.6257 25.4685H74.6769C74.7793 25.1746 74.8305 24.8388 74.984 24.419C75.1376 24.293 75.6494 24.251 75.6494 23.8312C75.4958 24.293 75.0864 24.0411 74.6769 24.1251C75.0352 23.6633 75.3423 23.2855 75.6494 22.8657C75.8029 22.6977 75.9565 22.4878 75.9565 22.3199C75.9565 21.9421 75.9053 21.5642 75.8541 21.2284C76.0077 21.1444 76.11 21.1024 76.2124 21.0185C76.366 20.9345 76.7243 20.8925 76.366 20.6406C76.366 20.6406 76.4171 20.5567 76.4683 20.5147C76.5195 20.3468 76.5707 20.1369 76.5707 19.9689C76.5707 19.6331 76.2124 19.1713 75.5982 18.6255C75.6494 18.7935 75.6494 18.8774 75.7006 19.0034C75.0864 18.8774 74.8816 18.4996 74.6769 18.1217C74.421 18.0378 74.1651 17.9958 73.9091 17.9538C73.8068 17.9118 73.7044 17.8699 73.6532 17.8699C72.6296 17.7439 71.6571 17.9118 70.6846 18.2477C70.1216 18.4156 69.5074 18.5416 68.9443 18.7515C68.6372 18.8774 68.2278 18.7935 68.023 19.1293C68.023 19.1293 67.7671 19.1293 67.7159 19.0873C67.6136 19.0034 67.5624 18.8354 67.46 18.7095C67.1529 18.8774 67.1529 18.8774 67.3065 19.2552C67.1529 19.2972 66.9482 19.3392 66.7946 19.3812C66.7434 19.2972 66.6923 19.2133 66.6411 19.1293C66.4363 19.1293 66.2828 19.1713 66.1292 19.1713C66.2828 18.4156 66.7946 17.8699 67.3577 17.3661C67.1529 17.4081 66.9994 17.4081 66.7946 17.45C66.5899 17.1142 66.8458 16.8623 66.9994 16.6104C67.2041 16.3165 67.46 16.0227 67.46 15.7288C67.5112 15.3929 67.3576 15.0571 67.2553 14.7212C67.1017 14.3434 66.897 14.0076 66.334 13.9656C65.6686 13.9236 65.5662 13.7976 65.4127 13.1679C65.1056 13.1259 64.7473 13.042 64.389 13C63.8772 13 63.3141 13.042 62.8023 13.084C61.8298 13.1679 60.9085 13.3359 60.0384 13.6717C59.936 13.7137 59.7825 13.7137 59.6801 13.7557C58.8612 13.9236 58.0422 14.1335 57.2233 14.3014C56.9674 14.3434 56.6603 14.3434 56.5067 14.4694C56.2508 14.6793 55.9949 14.6373 55.739 14.5953C55.6366 14.5953 55.5342 14.6373 55.3807 14.6373C55.4319 14.7632 55.483 14.8472 55.5854 14.9731C55.1759 15.0991 54.8177 15.225 54.4082 15.351C54.4082 15.267 54.4082 15.183 54.4082 15.0991C53.8964 15.183 53.5893 15.4769 53.2822 15.7288C52.975 15.9387 52.7703 16.0227 52.4632 15.8128C52.412 15.7708 52.3097 15.7708 52.2073 15.7708C52.1049 15.8967 52.0026 16.0227 51.9002 16.1486C52.1049 16.1486 52.2073 16.1486 52.3608 16.1066C52.0026 16.5684 50.9789 17.0302 50.2623 17.0722C50.2623 16.9463 50.2111 16.8203 50.2111 16.6524C49.7505 16.9463 49.2898 17.1982 48.8292 17.534C48.9827 17.576 49.0339 17.618 49.1363 17.6599C48.7268 18.1217 48.1638 17.7439 47.7543 17.9538C47.652 17.7019 48.0102 17.45 47.7031 17.1982C47.3448 17.492 46.9866 17.7019 46.5259 17.8279C46.3724 17.2821 46.8842 16.9882 47.0378 16.6524C46.9354 16.4425 46.7818 16.2326 46.833 16.1066C46.833 16.1906 47.0889 16.1486 47.2425 16.0647C47.3449 15.6448 47.0889 15.351 46.833 15.0571C46.5259 15.0151 46.2188 14.8892 45.8605 15.0151C45.7582 15.0571 45.5022 14.9731 45.3487 14.8892C45.0416 14.7212 44.7857 14.6793 44.4786 14.8052C44.2227 14.9312 43.9156 14.9312 43.7108 14.7632C43.5061 14.6373 43.2502 14.5953 43.0454 14.6793C42.8919 14.7632 42.7383 14.9312 42.6871 14.9731C42.4312 14.9731 42.2265 14.9312 42.0729 15.0151C41.817 15.1411 41.6635 15.309 41.4076 15.4349C41.1516 15.5609 40.8957 15.6448 40.6398 15.7708C40.2815 15.8967 40.0256 16.1066 39.9744 16.4425C39.9744 16.5264 39.872 16.5684 39.7697 16.6524C39.4626 16.4845 39.2067 16.4845 38.9507 16.6944C38.6436 16.9463 38.2854 17.1562 37.9271 17.4081C37.5688 17.618 37.2105 17.8279 36.8522 18.0378C36.6475 18.1637 36.4427 18.1637 36.2892 17.9538C35.9309 18.6255 35.9309 18.6255 35.675 18.6255C35.6238 18.4156 36.0845 18.2897 35.8797 18.0798C35.5726 18.4156 35.2655 18.7515 34.9584 19.0453C34.7025 18.9194 34.4978 18.8354 34.293 18.7515C34.1395 18.8774 34.0371 19.0034 33.8836 19.1293C34.0371 19.3392 33.9347 19.5491 33.7812 19.759C33.4229 19.5491 33.4229 19.927 33.2182 19.9689C33.0646 20.0109 32.9111 20.1369 32.604 20.3048C32.7063 20.0109 32.7575 19.801 32.8599 19.5911C32.9111 19.5491 33.1158 19.5491 33.167 19.5071C33.2694 19.3812 33.3205 19.2133 33.4229 19.0453C32.6552 19.0873 32.604 19.0453 32.604 18.4996C32.604 18.4576 32.604 18.3736 32.5528 18.3736C32.2457 18.1217 32.4504 17.9538 32.6552 17.7019C32.8599 17.8279 33.2182 17.7859 33.0134 18.1217C33.0134 18.1637 33.0134 18.2477 33.0646 18.2897C33.1158 18.2897 33.2182 18.2897 33.2694 18.2477C33.4741 18.0798 33.6276 17.9118 33.8324 17.7019C33.8324 17.534 33.7812 17.2401 33.6788 16.9043C33.5253 17.0722 33.4229 17.1982 33.2694 17.3241C32.8599 16.9882 32.8599 16.9882 33.1158 16.6104C33.2182 16.4425 33.2694 16.2746 33.3205 16.1906C32.9623 15.6448 32.4504 15.8967 31.8874 15.9387C32.0921 15.7288 32.2457 15.6029 32.3992 15.4769C32.1945 15.309 32.2457 15.0991 32.348 14.8892C32.3992 14.7212 32.6552 14.5533 32.3992 14.3854C32.2457 14.3014 31.9898 14.2594 31.7338 14.2594C31.6315 14.2594 31.5291 14.3014 31.4267 14.3434C31.0173 14.4274 30.6078 14.4274 30.3007 14.1335C29.9424 14.1755 29.8401 14.7212 29.3794 14.3854C29.3282 14.5953 29.277 14.7632 28.9699 14.7212C28.4581 14.5953 28.0486 14.8052 27.6903 15.0151C26.4107 15.7708 25.1312 16.4845 23.8516 17.2401C23.6468 17.3661 23.4933 17.45 23.2885 17.576C23.4421 17.618 23.4933 17.6599 23.6468 17.7439C23.4933 17.7859 23.4421 17.8699 23.3909 17.8699C22.9814 17.7439 22.7255 17.8699 22.5208 18.1217C22.4696 18.1637 22.4184 18.2057 22.3161 18.2477C20.8829 18.7935 19.7057 19.6751 18.4773 20.5147C18.2726 20.6826 18.1702 20.9345 17.8119 21.0605C18.0678 21.1024 18.3237 21.1444 18.682 21.2284C18.3237 21.3543 18.119 21.4383 17.8631 21.5642C17.556 21.3123 17.2489 21.3963 16.9418 21.6062C16.4811 21.9421 15.9181 22.2359 15.4063 22.5718C15.0992 22.7817 15.048 22.7397 14.8433 22.4458C14.5873 22.5298 14.2802 22.5718 14.0243 22.6558C14.0755 22.6977 14.0755 22.7397 14.1267 22.7817C13.9219 23.3694 13.3589 23.7053 12.6935 23.9572V24.419C12.1305 24.6289 12.1817 24.6289 11.9258 25.1746C11.8746 25.3006 11.6187 25.4265 11.4651 25.4685C11.2604 25.5105 11.0557 25.5105 10.7997 25.5105C10.5438 25.8883 10.2367 26.2662 9.92962 26.644C9.82726 26.7699 9.67371 26.8959 9.52015 26.9798C9.26424 27.1478 9.00832 27.3157 8.7524 27.4836C8.65003 27.1478 8.54766 26.8119 8.1382 26.644C8.49648 26.2242 8.49648 26.2242 9.11068 26.3501C9.62252 26.0563 9.77607 25.5105 10.3391 25.2166C10.4415 25.1746 10.5438 25.0487 10.595 24.9647C10.6974 24.6289 11.0045 24.461 11.3628 24.335C11.4139 24.293 11.4651 24.293 11.5675 24.251C11.3628 24.1251 11.0557 24.1671 11.1068 24.0411C11.4139 23.8312 11.5675 23.7053 11.7722 23.5374C12.0793 23.2855 12.2841 22.9916 12.6424 22.8237C12.9495 22.6977 13.2566 22.4039 13.3589 22.11C13.4613 21.8581 13.6148 21.6482 13.8196 21.4803C13.5125 21.1444 13.6148 20.8086 13.666 20.4727C14.1267 20.4307 14.3314 20.6826 14.485 20.9345C14.7921 20.6406 15.048 20.3468 15.2527 20.1369C15.1504 19.9689 15.048 19.843 15.048 19.717C15.048 19.6331 15.1504 19.5491 15.2015 19.5071C15.5086 19.3392 15.5598 19.2552 15.3039 19.1293C15.048 18.9614 14.7409 18.8354 14.4338 18.7095C14.3314 18.8354 14.2802 18.9614 14.229 19.0453C13.5637 18.9194 13.5125 18.9194 13.1542 19.3392C13.103 19.4232 13.0006 19.5071 12.8983 19.5911C12.0793 20.2208 11.3116 20.8925 10.5438 21.4803C10.5438 21.7741 11.0045 21.9001 10.7486 22.11C10.5438 22.3199 10.3391 22.152 10.1344 22.11C10.0832 22.11 10.032 22.11 9.92962 22.11C9.26424 22.6977 8.49648 23.2855 7.93346 23.9152C7.57518 24.293 6.85861 24.5029 6.90979 25.1327C6.90979 25.2586 6.65387 25.3846 6.5515 25.5525C6.44914 25.6784 6.34677 25.8044 6.34677 25.9303C6.14203 26.602 5.57902 26.9798 5.16955 27.3997C4.81126 27.7775 4.29942 28.0714 4.40179 28.6171C4.40179 28.6591 4.29942 28.7431 4.24824 28.7851C4.19706 28.827 4.09469 28.911 4.09469 28.911C4.29942 29.2049 3.99232 29.2888 3.83877 29.4568C3.7364 29.5827 3.58285 29.6667 3.58285 29.7086C3.63404 30.0445 3.37812 30.1704 3.17338 30.3384C2.91747 30.5483 2.61036 30.7162 2.61036 31.0521C2.61036 31.094 2.55918 31.178 2.508 31.178C1.99616 31.3039 2.04734 31.5978 2.14971 31.9337C2.2009 32.0176 2.14971 32.1436 2.14971 32.2275C2.09853 32.4374 2.14971 32.5634 2.30326 32.7313C2.61036 33.0252 2.45681 33.2771 1.99616 33.361C1.74024 33.403 1.53551 33.361 1.27959 33.361C1.27959 33.529 1.27959 33.7389 1.17722 33.8648C1.12604 33.9908 0.921305 34.1167 0.767754 34.2427C0.818938 34.3266 0.870122 34.4106 0.921305 34.4945C0.818938 34.6205 0.665387 34.7464 0.56302 34.7884C0.716571 35.4601 0.307102 35.796 0 36.1738C0.307102 36.3837 0.614204 36.5516 0.614204 36.9295C0.614204 37.2233 0.767754 37.4752 1.27959 37.5592C1.22841 37.3913 1.17722 37.2653 1.12604 37.1814C1.33077 37.0134 1.53551 36.8875 1.68906 36.7615C1.58669 36.5936 1.22841 36.4257 1.48433 36.2158C1.79143 36.2997 2.09853 36.3417 2.35445 36.3837C2.30326 36.5097 2.25208 36.5516 2.2009 36.6776C2.61036 36.5936 2.8151 36.6776 2.96865 36.8875C2.91747 37.0974 2.86628 37.2653 2.76392 37.4752H2.86628C3.07102 37.7271 3.22457 37.937 3.4293 38.1889C3.63404 38.1889 3.83877 38.1469 4.09469 38.1469C4.19706 38.021 4.24824 37.937 4.40179 37.7691C4.55534 38.021 4.65771 38.1889 4.76008 38.3568C4.81126 38.3568 4.86244 38.3568 4.91363 38.3568C4.45298 37.8531 5.11836 37.4752 5.06718 37.0974C5.3231 36.9715 5.57901 36.8875 5.6302 36.7196C5.78375 36.4257 6.03967 36.3837 6.34677 36.2997C6.65387 36.2158 6.96097 36.1318 7.16571 35.796C7.31926 35.5441 7.62636 35.2082 8.1382 35.2922C8.29175 35.67 7.77991 35.712 7.67754 36.0898C7.88228 36.0479 8.08701 36.0898 8.18938 36.0059C8.54766 35.754 9.00832 35.5861 9.11068 35.1662C9.11068 35.0823 9.26424 34.9983 9.31542 34.9144C9.77607 34.6205 10.2367 34.3686 10.6462 34.0327C10.8509 33.8648 11.2092 33.6969 11.2092 33.403C11.3628 33.3191 11.6187 33.3191 11.6699 33.1931C11.8234 32.9412 12.0793 32.8573 12.3353 32.8153C12.2841 33.0672 12.2329 33.3191 12.1817 33.529C12.4376 33.7809 12.6935 33.7389 12.9495 33.529C13.0518 33.445 13.2054 33.3191 13.3077 33.2351C13.666 32.7313 14.2802 32.3955 14.7921 31.9757C14.7921 31.9757 14.8433 32.0176 14.9456 32.0176C14.6897 32.3955 14.485 32.8153 14.1779 33.1931C13.8196 33.6549 13.3077 34.0327 12.8983 34.4945C12.6424 34.7884 12.3864 35.0403 12.0282 35.2082C12.0282 35.2082 12.0282 35.2502 12.0282 35.3342C12.1817 35.2922 12.3353 35.2922 12.4888 35.2502C12.4888 35.754 11.9258 36.0898 11.9258 36.5516C11.9258 36.5936 11.8234 36.7196 11.7722 36.7196C11.5163 36.7196 11.5163 36.9295 11.4651 37.0554C11.3628 37.2233 11.2092 37.3493 11.1068 37.5172C11.0557 37.5592 11.0045 37.6432 11.0045 37.6851C11.1068 38.105 10.595 38.2309 10.4926 38.5667C10.032 38.6087 10.1855 39.0705 9.82726 39.1965C9.57134 39.8262 9.46897 40.4979 8.85477 40.9597C8.80358 41.0017 8.80358 41.0856 8.7524 41.1276C8.59885 41.2955 8.49648 41.4215 8.39411 41.5474C8.29175 41.8413 8.24056 42.1352 8.08701 42.3031C7.77991 42.6809 7.72873 43.0588 7.62636 43.4786C7.57518 43.6465 7.52399 43.8144 7.42163 43.9824C7.16571 44.3602 6.85861 44.738 6.65387 45.1159C6.44914 45.4937 6.29559 45.9555 6.19322 46.3753C6.19322 46.4593 6.2444 46.5432 6.34677 46.6692C6.50032 46.3333 6.70505 46.0814 7.06334 45.9555C7.11452 46.2074 7.01216 46.4173 7.26807 46.6692C7.52399 46.8791 8.1382 46.7951 8.03583 47.2989C8.03583 47.2989 8.08701 47.2989 8.08701 47.3409H8.59885V47.7187C8.7524 47.6348 8.90595 47.5508 9.0595 47.5088C9.16187 47.6348 9.26424 47.7607 9.3666 47.8867C9.41779 47.9286 9.41779 47.9706 9.46897 48.0126C9.00832 48.4324 9.00832 48.4324 9.26424 48.6843C9.21305 49.1461 8.7524 49.1041 8.34293 49.2301C8.70122 49.4819 9.31542 49.0202 9.46897 49.6079H10.4926C10.5438 49.6919 10.6462 49.7758 10.6974 49.8598C11.0557 49.7758 11.4139 49.6919 11.6699 49.6499C11.8234 49.8178 11.8746 50.0277 12.0282 50.0697C12.1305 50.1117 12.3353 49.9437 12.4888 49.8598C12.5912 49.7758 12.6935 49.7338 12.7959 49.6499C13.0006 49.8598 13.0518 49.9857 12.8471 50.1956C12.6424 50.4055 12.5912 50.6574 12.6935 51.0353C13.2566 50.4475 13.4613 49.8598 13.7684 49.272C13.8196 49.272 13.9731 49.272 14.2802 49.314C13.8708 49.5659 14.229 50.1117 13.6148 50.1537C13.6148 50.6154 13.6148 50.6154 13.2054 51.2032C13.103 51.3711 13.0006 51.539 13.0006 51.707C13.103 52.1268 12.8471 52.5466 12.3353 52.7145C12.2841 52.7145 12.2841 52.7565 12.2329 52.8405C12.2329 52.9664 12.2841 53.0924 12.2841 53.2603C12.6935 52.9244 12.9495 52.5466 13.4613 52.2527C13.5125 52.5466 13.5637 52.7985 13.5637 52.9664C13.4613 53.1763 13.3589 53.3442 13.2566 53.4702C13.5125 53.3442 13.6148 53.5542 13.7684 53.5961C14.1267 53.3442 14.485 53.1343 14.9456 52.8405C14.7921 53.3442 14.1267 53.4702 14.1779 53.932C14.3826 53.932 14.5361 53.974 14.7409 53.974C14.6897 54.1839 14.6385 54.3518 14.6385 54.5617C15.048 54.3518 15.048 53.932 15.5598 53.89C15.5086 54.0999 15.4575 54.3098 15.4575 54.4777C15.4575 54.6457 15.611 54.8556 15.5086 54.9815C15.3551 55.2334 15.611 55.3174 15.7134 55.4853C15.5086 55.5693 15.3551 55.6113 15.2015 55.6532C15.3551 55.7792 15.4575 55.9051 15.611 56.073C15.7646 56.0311 15.8669 55.9891 16.0205 55.9471C16.4299 55.8631 16.6859 56.0311 16.737 56.4089C16.8906 56.3249 17.0953 56.241 17.2489 56.115C17.5048 55.9051 17.7607 55.9471 17.9655 56.073C18.119 56.157 18.2214 56.241 18.3749 56.3669C18.8868 56.157 19.5521 56.5348 19.9616 56.0311C20.064 56.199 20.1663 56.3249 20.2687 56.3669C20.5246 56.4929 20.5246 56.7448 20.5246 56.9127C20.5246 57.2905 20.3711 57.6264 20.3199 58.0042C20.2687 58.1301 20.2687 58.2561 20.2687 58.382C20.4734 58.424 20.627 58.466 20.7806 58.508C20.6782 58.8438 20.1663 59.0118 20.4734 59.3896C20.627 59.3896 20.7294 59.3476 20.8829 59.3476C20.9341 59.5575 20.9341 59.6835 20.9341 59.8934C21.0877 59.8094 21.2412 59.7674 21.3436 59.6835C21.2412 59.6835 21.1388 59.6835 21.0365 59.7254C21.0365 59.0537 21.3948 58.424 22.009 58.0882C21.9578 58.2981 21.9066 58.466 21.8554 58.6339C21.753 58.9278 21.5995 59.2217 21.4971 59.4736C21.5483 59.4316 21.6507 59.3896 21.7019 59.3056C21.753 59.3476 21.753 59.3896 21.8042 59.4316C21.8042 59.5995 21.753 59.7674 21.753 59.9773C21.8042 59.9773 21.8554 59.9773 21.9066 59.9773C21.9066 59.8094 21.8554 59.6415 21.8554 59.4316C22.009 59.4316 22.1625 59.4316 22.3161 59.4316C22.6232 59.8934 22.0601 60.2712 22.1113 60.817C22.3161 60.4811 22.572 60.3552 22.8791 60.3552C23.0326 60.3552 23.2374 60.1872 23.3909 60.1033C23.5445 59.9773 23.5957 59.8094 23.7492 59.6835C23.9028 59.5155 24.1075 59.2636 24.517 59.2636C24.517 59.5575 24.3634 59.8094 24.261 60.0613C24.1587 60.3132 23.8516 60.5231 24.1075 60.9009C24.261 60.691 24.3122 60.5231 24.4146 60.3971C24.6193 60.2292 24.7217 60.0613 24.7729 59.8094C24.8241 59.5575 24.9776 59.3476 25.3359 59.3476C25.3871 59.5155 25.4894 59.6835 25.4894 59.7674C25.1823 60.3552 24.8752 60.9009 24.6193 61.4467C24.517 61.6986 24.3122 61.8245 24.0563 61.8665C23.698 61.9505 23.7492 61.6566 23.5956 61.4467C23.4933 61.7406 23.4933 61.9085 23.698 62.0344C24.0051 62.2024 24.261 62.4123 24.5681 62.6222C24.9776 62.5382 25.3359 62.4542 25.7454 62.3703C25.8989 62.3283 26.1036 62.2443 26.206 62.2863C26.4107 62.3283 26.5131 62.4962 26.7179 62.6222H27.7927C27.7415 62.7481 27.6903 62.8741 27.6903 63C27.8951 62.916 28.0486 62.8321 28.151 62.8321C28.714 62.916 29.0723 62.6222 29.4306 62.3703C30.0448 61.9924 30.8125 61.7825 31.4267 61.4467C31.5291 61.4047 31.6827 61.4047 31.785 61.4887C31.9898 61.6146 32.0921 61.7825 32.2457 61.8665C32.5528 61.6566 32.8599 61.3627 33.2182 61.1528C33.6276 60.9009 33.8324 60.5231 34.1907 60.1872C34.7537 59.6835 35.1631 59.0957 35.8797 58.7179L35.9309 58.6759C36.2892 57.9622 37.2105 57.5844 37.4152 56.7867C37.4152 56.7448 37.4664 56.7028 37.5176 56.7028C37.6711 56.6608 37.8759 56.6188 37.8759 56.6608C37.9782 56.9127 38.2853 56.8287 38.4901 56.9547C38.4389 56.7448 38.2342 56.5768 38.4389 56.3669C38.6948 56.115 38.9507 55.8631 39.2578 55.5693C39.2578 56.0311 39.5138 56.3249 39.8209 56.4509C40.0256 56.5348 40.2303 56.6608 40.4351 56.7867C40.5886 56.7028 40.691 56.6608 40.7933 56.6188C40.8445 56.7867 41.2028 56.8707 40.9469 57.0806C40.6398 57.3325 40.4862 57.0386 40.2303 56.9127C40.0768 56.9966 39.9232 57.0806 39.8209 57.2066C39.7185 57.3325 39.6673 57.5004 39.872 57.5844C40.1791 57.7103 40.0768 57.8363 39.9744 58.0042C39.872 58.1301 39.8209 58.2981 39.7185 58.424C39.5649 58.382 39.4114 58.382 39.1043 58.34C39.4114 58.6759 39.5649 59.0118 40.0768 59.0537C40.4862 59.0957 40.9469 59.2217 41.4076 59.3476C41.5611 59.3056 41.7658 59.2217 42.0218 59.0957C42.0729 59.2636 42.1241 59.3896 42.1753 59.4736C42.4824 59.5575 42.636 59.4316 42.8407 59.2636C42.9431 59.1797 43.199 59.0118 43.3013 59.0537C44.0179 59.2217 44.4274 58.8858 44.7857 58.466C44.888 58.34 44.9904 58.2141 45.0928 58.0882C45.2975 58.0882 45.5022 58.0462 45.707 58.0462C45.8605 58.1721 46.0141 58.2981 46.0653 58.382C46.1676 58.6759 45.6558 58.7179 45.8605 59.0118C46.27 58.7599 46.6795 58.55 46.5771 58.0882C46.9866 57.8783 47.4984 57.8363 47.8055 57.5004C48.1126 57.1646 48.5221 56.8707 48.8804 56.5348C49.2386 56.241 49.5457 55.9471 49.8528 55.6532C49.7505 55.4013 49.6481 55.2334 49.5969 55.0235C49.7505 54.9395 49.904 54.8556 50.0064 54.8136C50.0064 54.9395 49.9552 55.0235 49.9552 55.1495C50.0576 55.1495 50.16 55.1914 50.2111 55.1914C50.9789 54.7716 51.5419 54.1419 52.1049 53.5542C52.0026 53.3862 51.6443 53.3862 51.849 53.1343C52.0026 52.9244 52.1049 52.7565 52.4632 52.7565C52.412 52.9664 52.3608 53.0924 52.3097 53.3442C52.6168 53.2183 52.8727 53.0504 53.0774 53.0924C53.794 53.2183 54.2035 52.8825 54.6641 52.5466C54.4594 52.4626 54.357 52.4207 54.1523 52.3367C54.3058 52.0848 54.4594 51.8749 54.6129 51.623C54.7665 51.665 54.9712 51.665 55.1248 51.707C54.8688 51.8329 54.8177 52.0428 54.8177 52.2527C55.3295 52.0848 55.483 52.5046 55.7901 52.7145C55.5342 52.7985 55.4319 52.9244 55.483 53.1343C55.5342 53.3023 55.3807 53.5122 55.3295 53.7641C54.8177 53.89 54.8177 54.3098 54.6641 54.7296C54.8688 54.7296 55.0224 54.7296 55.1759 54.7296C55.4319 54.7296 55.6878 54.7716 55.8925 54.7716C56.1484 54.7716 56.4555 54.8556 56.7115 54.8136C56.9674 54.7716 57.1721 54.6457 57.4792 54.4777C57.428 54.6877 57.428 54.8136 57.428 54.8976C57.6328 54.9395 57.8375 54.9395 58.0422 54.9815C58.1958 54.5197 58.7076 54.5197 59.1171 54.3518C59.2195 54.5197 59.2706 54.6457 59.373 54.8556C59.9872 54.5197 60.5502 54.2259 61.1132 53.89C61.2156 53.974 61.318 54.016 61.318 54.016C61.6763 53.89 61.9322 53.7641 62.1881 53.6381C62.4952 53.5122 62.8535 53.4282 63.2118 53.3023C63.263 53.2603 63.3141 53.1343 63.3653 53.0504C63.1094 53.0084 62.9047 53.0084 62.5976 52.9664C62.8023 52.7985 62.8535 52.6725 63.007 52.5466C63.9283 51.9169 64.9008 51.2872 65.8221 50.6574C66.3852 50.2796 66.9482 49.9857 67.5112 49.6079C67.7159 49.4819 67.8183 49.2301 68.023 49.1041C68.2278 48.9782 68.4837 48.9782 68.7908 48.8942C68.5861 48.6843 68.4837 48.5584 68.3301 48.3904C68.7396 48.3065 68.842 48.6003 69.0467 48.7263C69.3538 48.5164 69.6097 48.3065 69.968 48.0966C70.0192 48.3065 70.0192 48.4744 70.0704 48.6843C69.5585 48.7683 69.3026 49.1461 68.7908 49.1881C68.5861 49.1881 68.4837 49.398 68.5349 49.5659C69.0979 49.5659 69.3538 49.0201 69.9168 49.0621C69.8656 49.1461 69.8145 49.2301 69.8145 49.314C69.968 49.272 70.0704 49.272 70.1728 49.2301V49.6499C69.968 49.6499 69.8145 49.6919 69.6097 49.6919C70.0704 50.1956 69.5074 50.6154 69.6097 51.1192C69.8145 51.0353 70.1216 50.9513 70.1216 50.8673C70.1216 50.4895 70.4799 50.5315 70.6846 50.3636C70.8381 50.6154 70.5822 51.0353 71.1452 51.0353C71.5547 50.8254 71.7083 50.5735 71.4523 50.1956C71.4012 50.1117 71.4523 49.9857 71.4523 49.8598C71.5035 49.8598 71.5035 49.8598 71.5547 49.8598C71.6059 49.9437 71.6571 50.0277 71.7594 50.1537H71.8106C71.8106 50.0277 71.7594 49.9437 71.7594 49.8178C71.9642 49.7758 72.1177 49.8178 72.2201 49.7338C72.3736 49.6499 72.3225 49.44 72.5784 49.44C72.6807 49.8598 72.6296 49.8178 72.4248 50.1117C72.1689 50.4475 71.9642 50.8254 71.7594 51.2032C72.1689 51.3711 72.6807 51.4131 72.8855 51.7909C72.3736 52.1688 72.2713 52.3367 72.3225 53.0504C72.6296 52.5886 72.8855 52.2527 73.1414 51.8749C73.1414 51.8749 73.1414 51.8749 73.1926 51.8749C73.4485 51.623 73.8068 51.4551 73.8068 51.0772C73.8068 51.0353 73.9091 50.9513 73.9603 50.9093C74.0627 50.7414 74.1139 50.4895 74.2674 50.3636C74.421 50.2376 74.6769 50.1537 74.8305 50.0277C74.7281 49.9018 74.6257 49.7758 74.5234 49.6499C74.7793 49.6079 74.9328 49.6079 75.0864 49.6079C75.1887 49.2301 75.2911 49.1881 75.7006 49.1881C75.6494 49.272 75.5982 49.398 75.5982 49.4819C75.8541 49.314 76.2636 49.1881 76.1612 48.8522C76.0077 48.4744 76.366 48.2225 76.3148 47.8867C76.3148 47.8027 76.5195 47.7187 76.7754 47.5928C76.7243 47.8867 76.7754 48.0546 77.0825 48.0546C77.0314 48.2225 77.0313 48.3484 76.9802 48.6003C77.492 48.3065 78.1062 48.2645 78.3109 47.8447C78.2598 47.6767 78.2086 47.5508 78.1062 47.4249C78.4645 47.2569 78.618 47.089 78.6692 46.7531C78.7716 46.4173 78.7204 46.2074 78.4133 46.0395C78.4645 45.8296 78.4645 45.7036 78.5157 45.5357C78.4645 45.5357 78.4645 45.5357 78.4133 45.4937C78.3621 45.5777 78.3109 45.7036 78.2086 45.8296C77.7991 45.2418 78.055 44.4861 78.618 44.2762C78.7716 44.4442 78.9251 44.6121 79.1299 44.738C79.3346 44.864 79.5905 44.9479 79.8465 45.1159C79.8976 44.9899 79.9488 44.822 80 44.6961C79.8976 44.4861 79.5905 44.5701 79.437 44.3182ZM77.2361 25.5525C77.2361 25.8044 76.9802 25.9303 76.7243 26.0563C76.6219 25.6784 76.6219 25.6784 77.2361 25.5525ZM13.666 19.2133C13.7172 19.2133 13.7684 19.2133 13.8708 19.2133C13.8196 19.3392 13.8196 19.4232 13.7684 19.5491C13.7172 19.5491 13.666 19.5491 13.6148 19.5071C13.6148 19.4232 13.666 19.3392 13.666 19.2133ZM12.8983 19.759C12.8983 19.801 12.9495 19.801 12.9495 19.843C12.8983 19.885 12.8983 19.927 12.8471 19.927C12.7959 19.885 12.7447 19.843 12.7447 19.843C12.7959 19.843 12.8471 19.801 12.8983 19.759ZM8.85477 25.0487C8.90595 25.1327 8.95713 25.1746 9.00832 25.2586C8.95713 25.2586 8.95713 25.3006 8.90595 25.3006C8.85477 25.2586 8.80358 25.1746 8.70122 25.1327C8.80358 25.0907 8.80358 25.0487 8.85477 25.0487ZM2.55918 36.3417C2.508 36.2578 2.45681 36.1738 2.45681 36.1318C2.45681 36.0898 2.55918 36.0059 2.61036 36.0059C2.66155 36.0059 2.71273 36.0898 2.8151 36.1318C2.71273 36.1738 2.66155 36.2578 2.55918 36.3417ZM8.34293 27.7775C8.34293 27.9454 8.29175 28.0714 8.08701 28.0294C7.98465 28.0294 7.93346 27.9034 7.83109 27.8195C7.98465 27.6935 8.18938 27.6935 8.34293 27.7775ZM7.72873 32.0596C7.57518 32.6474 7.57518 32.6474 7.01216 32.3955C7.06334 32.0596 7.47281 32.1856 7.72873 32.0596ZM7.11452 25.3006C7.26807 25.2586 7.42163 25.1327 7.52399 25.3426C7.37044 25.4685 7.16571 25.5945 6.96097 25.7624C6.96097 25.5945 6.80742 25.4265 7.11452 25.3006ZM6.80742 32.5214C6.80742 32.5634 6.75624 32.6054 6.70505 32.6474C6.65387 32.6054 6.5515 32.5634 6.5515 32.5214C6.5515 32.4794 6.60269 32.3955 6.65387 32.3115C6.70505 32.4374 6.80742 32.4794 6.80742 32.5214ZM5.6302 28.4072H6.14203C5.98848 28.6171 5.88612 28.827 5.73257 29.0369C5.37428 28.869 5.6302 28.6591 5.6302 28.4072ZM5.6302 29.4568C5.98848 29.3308 6.2444 29.2049 6.5515 29.0789C6.60269 29.4148 6.44914 29.7086 5.9373 29.8346C6.03967 30.2124 5.98848 30.2964 5.47665 30.3384C5.52783 30.0445 5.57901 29.7506 5.6302 29.4568ZM4.60653 30.4643C4.55534 30.1704 4.60653 30.0865 5.11836 29.6247C5.16955 29.8346 5.27191 30.0025 5.3231 30.1704C5.016 30.2544 4.81126 30.3804 4.60653 30.4643ZM5.22073 34.3266C5.16955 34.4106 5.11836 34.4945 5.06718 34.5785C5.016 34.5365 4.96481 34.5365 4.96481 34.4945C5.016 34.4106 5.11836 34.3686 5.16955 34.2846L5.22073 34.3266ZM4.91363 30.8421C4.81126 30.8841 4.65771 30.8841 4.55534 30.9261C4.55534 30.8841 4.50416 30.8841 4.50416 30.8421C4.55534 30.8002 4.60653 30.7582 4.65771 30.7582C4.70889 30.7582 4.81126 30.7582 4.86244 30.7582C4.86244 30.7582 4.91363 30.8002 4.91363 30.8421ZM4.50416 28.995C4.76008 29.0369 4.96481 29.1209 5.16955 29.1629C4.96481 29.3728 4.76008 29.5407 4.35061 29.4568C4.45298 29.2888 4.45298 29.1629 4.50416 28.995ZM2.96865 32.0176C3.1222 31.9757 3.17338 31.9337 3.27575 31.8917C3.17338 31.7657 3.07102 31.6398 2.86628 31.4719C3.1222 31.3879 3.32694 31.3039 3.63404 31.178C3.37812 31.5978 3.94114 31.8917 3.4293 32.2275C3.27575 32.1856 3.1222 32.1016 2.96865 32.0176ZM5.016 36.7615C4.86244 37.0134 4.35061 37.2233 4.04351 37.2233C3.48049 37.2233 3.27575 36.9715 3.48049 36.5097C3.53167 36.4257 3.58285 36.2997 3.63404 36.2158C3.99232 36.2158 3.78759 36.3837 3.83877 36.5097C3.88996 36.3417 3.94114 36.2158 3.99232 36.0898C4.50416 35.9639 4.96481 35.8799 5.57901 35.754C5.37428 36.1738 5.22073 36.5097 5.016 36.7615ZM5.83493 35.9219C5.88612 35.67 6.14204 35.628 6.29559 35.4601C6.29559 35.712 6.29559 35.712 5.83493 35.9219ZM6.65387 34.0327C6.39795 34.1167 6.2444 34.4526 6.09085 34.7045C6.19322 34.6625 6.29559 34.6625 6.34677 34.5785C6.39795 34.4945 6.44914 34.4106 6.5515 34.3686C6.70505 34.6205 6.5515 34.7884 6.39795 34.9563C6.29559 35.0823 6.03967 35.2502 6.29559 35.4601C6.09085 35.4601 5.9373 35.5021 5.73257 35.5021C5.57901 35.2922 5.42546 35.0823 5.27191 34.8304C5.42546 34.7044 5.73257 34.6625 5.6302 34.3686C5.6302 34.2846 5.73257 34.1167 5.83493 34.0327C6.14203 33.7809 6.44914 33.487 6.65387 33.1511C6.80742 32.8992 7.11452 33.0252 7.42163 33.0252C7.52399 33.2771 7.57518 33.403 7.26807 33.5709C7.11452 33.7389 7.01216 33.9488 6.65387 34.0327ZM7.83109 34.5785C7.62636 34.3686 7.47281 34.2427 7.31926 34.0747C7.42163 33.8648 7.67754 33.8648 7.88228 33.9488C8.08701 33.9908 8.03583 34.2427 7.83109 34.5785ZM7.83109 32.9412C7.72873 32.6474 7.98465 32.4374 8.18938 32.2275C8.34293 32.2275 8.49648 32.2695 8.70122 32.2695C8.34293 32.4794 8.08701 32.6893 7.83109 32.9412ZM8.34293 27.7355C8.29175 27.6935 8.24056 27.6096 8.18938 27.5676C7.98465 27.4416 7.98465 27.3157 8.18938 27.1898C8.39411 27.2737 8.59885 27.3997 8.80358 27.4836C8.65003 27.5676 8.49648 27.6516 8.34293 27.7355ZM9.77607 48.6843C9.62252 48.6843 9.41779 48.6843 9.26424 48.6843C9.26424 48.6423 9.26424 48.6003 9.26424 48.5584C9.26424 48.3484 9.26424 48.1805 9.57134 48.1805C9.77607 48.1805 9.82726 48.3904 9.77607 48.6843ZM12.7959 49.4819C12.7447 49.4819 12.6935 49.44 12.6424 49.44V48.5584C12.8983 48.6003 13.103 48.6423 13.4101 48.7263C13.2054 49.0202 13.0006 49.2301 12.7959 49.4819ZM13.5125 48.6003C13.2054 48.3904 13.3077 48.2225 13.5125 48.0546C13.666 48.2645 13.6148 48.3904 13.5125 48.6003ZM14.5361 44.2343C14.4338 44.1923 14.3314 44.1923 14.229 44.1923C14.229 44.1503 14.2802 44.0663 14.2802 44.0663C14.3826 44.0663 14.485 44.1083 14.5873 44.1083C14.5361 44.1503 14.5361 44.1923 14.5361 44.2343ZM24.8752 19.2972C24.6193 19.4232 24.4658 19.4232 24.4146 19.1293C24.6193 19.2133 24.7217 19.2552 24.8752 19.2972ZM23.1862 18.2057C23.5445 18.3317 23.3909 18.5416 23.1862 18.7515C22.9814 18.7095 22.7767 18.6255 22.572 18.5416C22.7255 18.2897 22.8791 18.0798 23.1862 18.2057ZM22.3672 21.2704H22.4696V21.5223C22.4184 21.5223 22.4184 21.5223 22.3672 21.5223V21.2704ZM19.0403 22.6977C18.9891 22.8657 18.9379 23.0336 18.6308 22.8657C18.7844 22.7817 18.9379 22.7397 19.0403 22.6977ZM17.0441 24.7548C17.0953 24.7548 17.1465 24.7548 17.1465 24.7548C17.2489 24.8388 17.3001 24.9647 17.4024 25.0487C17.2489 25.1327 17.1465 25.3426 16.9418 25.1327C16.9418 25.0487 17.0441 24.8808 17.0441 24.7548ZM14.8433 26.8539C14.8944 26.8539 14.9456 26.8959 14.9968 26.9379C14.9456 26.9798 14.8944 27.0218 14.8433 27.0218C14.7921 27.0218 14.7409 26.9798 14.7409 26.9379C14.7409 26.8959 14.7921 26.8539 14.8433 26.8539ZM9.62252 34.1587C9.46897 33.9068 9.77607 33.8648 9.98081 33.6969C9.98081 33.9908 9.92962 34.1167 9.62252 34.1587ZM14.0243 31.7657C13.8708 31.8917 13.666 32.0176 13.5125 32.1436C13.2566 32.4794 12.8471 32.6474 12.4376 32.7733C13.3077 31.7657 14.0755 31.136 14.7409 30.8841C14.6897 31.094 14.3314 31.5558 14.0243 31.7657ZM15.6622 53.806C15.611 53.6801 15.5598 53.6381 15.5598 53.5961C15.611 53.5122 15.6622 53.4702 15.7134 53.4282L15.8669 53.4702C15.8157 53.5961 15.7646 53.6381 15.6622 53.806ZM15.8669 30.6742C15.6622 30.5903 15.9181 30.2964 15.5598 30.3384C15.5598 30.2544 15.5086 30.1285 15.5598 30.0445C15.6622 29.9605 15.8157 29.9186 16.0717 29.8346C16.174 30.0445 16.2252 30.1704 16.3276 30.3804C16.174 30.4643 16.0205 30.5903 15.8669 30.6742ZM17.556 27.8195C17.0953 28.2393 16.6347 28.7011 16.1228 29.1209C15.5598 29.5827 14.8433 29.9186 14.3826 30.5063C14.2802 30.6322 14.0755 30.7162 13.9219 30.8421C13.8196 30.9261 13.666 30.9681 13.5637 31.0521C13.0006 31.5139 12.4888 31.9757 11.9258 32.4374C11.8746 32.4794 11.8234 32.6054 11.721 32.6054C11.3116 32.7313 11.2092 32.9832 11.2604 33.3191C10.9533 33.0672 10.7486 33.361 10.4415 33.529C10.5438 33.1511 10.7486 32.8153 11.0045 32.6893C11.6699 32.3535 11.8234 31.8917 11.8234 31.3039C11.9258 31.3039 12.0282 31.262 12.0793 31.3039C12.2329 31.3459 12.4888 31.4299 12.5912 31.3879C12.7959 31.3039 13.0006 31.136 13.1542 30.9681C13.4101 30.6742 13.4613 30.2544 13.9219 30.1704C14.0243 29.7506 14.3826 29.7086 14.7921 29.7086C14.8944 29.7086 15.0992 29.6247 15.1504 29.4987C15.5086 29.0789 16.0205 28.7431 16.5323 28.4492C16.7882 28.2813 16.9418 28.0714 17.1977 27.9034C17.3001 27.8195 17.4536 27.8195 17.556 27.8195C17.5048 27.6935 17.4536 27.5676 17.4024 27.4416C17.7095 27.4416 17.8631 27.5256 17.8631 27.6935C17.8631 27.8195 17.7607 27.9454 17.556 27.8195ZM18.1702 34.0327C18.0166 33.7809 18.1702 33.6969 18.4773 33.7389C18.3749 33.8228 18.2726 33.9068 18.1702 34.0327ZM19.3986 54.8976C19.245 54.4777 19.6033 54.5197 19.8592 54.3098C19.9104 54.7716 19.5521 54.6877 19.3986 54.8976ZM20.5246 56.0311C20.3711 55.8212 20.2687 55.7372 20.1663 55.6113C20.1663 55.4433 20.6782 55.2754 21.19 55.3174C20.9341 55.5273 20.7806 55.7372 20.5246 56.0311ZM20.7294 56.3669C20.8317 56.0311 21.0365 55.9471 21.3948 55.9471C21.3436 56.073 21.2924 56.199 21.2412 56.3249C21.0877 56.3669 20.9341 56.3669 20.7294 56.3669ZM21.3948 57.1646C21.4459 57.2066 21.5483 57.2485 21.6507 57.2905C21.4971 57.5004 21.3436 57.7103 21.19 57.9622C20.9341 57.8363 20.8317 57.6683 20.8829 57.5004C21.0365 56.9966 21.19 56.4929 21.8554 56.157C22.1113 56.6608 21.4971 56.8287 21.3948 57.1646ZM24.261 27.2737C24.2099 27.1898 24.1075 27.1478 24.1075 27.1058C24.1075 27.0638 24.1587 27.0218 24.2099 27.0218C24.261 27.0218 24.3122 27.0638 24.4146 27.1058C24.4146 27.1478 24.3634 27.1898 24.261 27.2737ZM24.8752 26.644C24.8241 26.602 24.7729 26.56 24.7729 26.5181C24.8241 26.4761 24.8752 26.4341 24.9264 26.3921C24.9776 26.4341 25.0288 26.4761 25.0288 26.5181C24.9776 26.56 24.9264 26.602 24.8752 26.644ZM24.6193 21.3963C24.5681 21.4383 24.6193 21.6062 24.5681 21.7741C24.4658 21.8161 24.3634 21.9001 24.2099 22.026C24.1587 22.068 24.1075 22.152 24.1075 22.152C23.5445 22.026 23.5956 22.4878 23.2885 22.6558C23.0326 22.8237 22.7767 23.0336 22.5208 23.2015C22.4696 23.2435 22.2649 23.2015 22.0601 23.2015C22.1113 23.1595 22.009 23.2015 22.009 23.2435C21.7019 23.6633 21.3436 23.9992 20.8829 24.293C20.7294 24.377 20.7294 24.5869 20.627 24.7548C20.4734 24.9647 20.6782 25.0067 20.8317 25.1327C20.8829 25.1746 20.8317 25.3006 20.8317 25.4265C20.5246 25.3426 20.2687 25.2586 19.9616 25.1327C19.9104 25.1746 19.8592 25.2586 19.8081 25.2586C19.1427 25.3426 18.7844 25.8044 18.3237 26.0982C17.9655 26.3081 17.6072 26.644 17.1977 26.8959C16.8906 27.1058 16.5835 27.3157 16.3276 27.6096C16.2252 27.7355 16.0205 27.8195 15.8157 27.9874V28.4072C15.6622 28.2813 15.5598 28.1973 15.4063 28.1133C15.3039 28.1973 15.2527 28.2393 15.1504 28.3233C15.0992 28.3652 15.0992 28.4492 15.0992 28.4492C14.4338 28.4072 14.3826 28.995 13.9731 29.2049C13.8708 29.2469 13.8196 29.4148 13.7172 29.5407C13.9219 29.5827 14.0243 29.6247 14.1267 29.6667C14.1267 29.7086 14.1267 29.7506 14.0755 29.7506C13.6148 29.9186 13.2054 30.1285 12.6424 30.1704C12.54 30.1704 12.4376 30.2544 12.3864 30.2964C12.1817 30.5483 11.9258 30.5063 11.6187 30.4643C11.3116 31.0521 11.1068 31.6398 10.3391 31.9757C10.1855 32.0176 10.1344 32.1856 10.032 32.3115C9.82726 32.6893 9.46897 32.7313 8.90595 32.6893C9.0595 32.4794 9.16187 32.3535 9.31542 32.2275C9.57134 32.0176 9.87844 31.8497 9.72489 31.4299C9.67371 31.3459 9.82726 31.0521 10.1855 31.136C10.2367 31.136 10.4926 30.9681 10.4926 30.9261C10.3903 30.7162 10.6974 30.5903 10.6974 30.4223C10.6974 30.1285 10.9021 30.0865 11.2092 30.0865C11.0045 29.8766 10.9021 29.7086 10.7486 29.4987C10.9533 29.4568 11.0557 29.4148 11.158 29.3728C11.3628 29.2888 11.6187 29.2469 11.6699 29.1629C11.977 28.6591 12.54 28.4072 13.0518 28.1133C13.2054 28.0294 13.3589 27.9034 13.6148 27.8615C13.4613 28.0714 13.3077 28.2813 13.1542 28.4912C13.5125 28.3233 13.8708 28.1973 13.9219 27.8195C13.9731 27.6096 14.0755 27.5256 14.3314 27.5676C14.485 27.5256 14.6897 27.4836 14.8944 27.4416C14.9456 27.1898 14.9968 26.8959 15.3551 26.8119C15.4063 26.8119 15.4063 26.728 15.4575 26.686C15.5086 26.3501 15.7134 25.7624 15.9181 25.5525C15.9181 25.5105 15.9693 25.5105 16.0717 25.5105C16.0717 25.6364 16.0205 25.7204 16.0205 25.8044C16.0205 25.8883 15.9693 25.9723 15.9693 26.0563C16.174 26.0143 16.3788 25.9723 16.6347 25.9303C16.737 25.8044 16.8394 25.6364 17.0953 25.5105C17.556 25.3006 18.1702 25.0907 18.2214 24.5449C18.119 24.461 18.0166 24.419 17.8631 24.335C17.9655 24.293 18.0166 24.2091 18.0166 24.2091C18.1702 24.2091 18.2726 24.251 18.4261 24.293C18.5797 23.5793 19.2962 23.1175 19.9616 23.2855C19.8592 23.4534 19.3986 23.3275 19.5521 23.7053C20.3199 23.6213 20.627 22.9496 21.3948 22.8657C21.2924 22.6558 21.2412 22.5298 21.1388 22.2779C21.753 22.5298 22.1113 22.4458 22.2137 21.984C22.5208 21.8161 22.8791 22.11 23.0326 21.9001C22.8791 21.4383 22.7255 21.0605 22.572 20.5987C23.1862 20.7246 22.9814 20.1788 23.3397 19.9689C23.2885 20.3468 23.3909 20.5987 23.8004 20.6826C23.698 20.8505 23.5957 21.0185 23.4933 21.1864C24.0051 21.1444 24.1075 21.1024 24.0563 20.8505C24.0051 20.5987 23.9028 20.3468 24.1075 20.0949C24.1587 20.0109 24.1075 19.843 24.0563 19.5911C24.261 19.759 24.3634 19.885 24.4658 19.885C24.5681 19.927 24.7217 19.843 24.8752 19.843C25.08 20.0529 25.08 20.2208 24.7729 20.3048C24.9264 20.3887 25.08 20.4307 25.2847 20.5147C25.0288 20.7246 25.0288 21.1864 24.6193 21.3963ZM27.4344 23.5374C27.4344 23.1595 27.7927 23.1595 27.9974 22.9916C28.0486 23.1175 28.0998 23.2015 28.2022 23.3275C27.8951 23.4114 27.6903 23.4534 27.4344 23.5374ZM31.8362 19.3812C32.1433 19.3392 32.2969 19.3392 32.4504 19.2972C32.4504 19.3392 32.4504 19.3812 32.4504 19.4652C32.348 19.5911 32.1433 19.5911 31.8362 19.3812ZM35.6238 57.0386C35.2655 57.3325 35.112 57.7103 34.856 58.0042C34.7025 58.2141 34.4978 58.34 34.2418 58.466C34.1907 58.424 34.1395 58.424 34.0883 58.382C34.1907 58.2141 34.2418 58.0462 34.3954 57.9202C35.0096 57.4165 35.4191 56.8287 35.8285 56.241C35.9309 56.073 36.0845 55.8631 36.238 55.7372C36.3404 55.6532 36.5963 55.6532 36.7498 55.6113C36.801 55.6532 36.801 55.6952 36.8522 55.7372C36.4427 56.199 36.0845 56.6608 35.6238 57.0386ZM39.4114 32.8573C39.3602 32.8153 39.309 32.8153 39.2578 32.7733C39.3602 32.6893 39.4114 32.6054 39.5649 32.4794C39.7185 32.7313 39.5649 32.8153 39.4114 32.8573ZM42.1241 15.5609C42.0729 15.5609 42.0729 15.5609 42.0218 15.5189C42.0729 15.4349 42.0729 15.351 42.1241 15.225C42.1753 15.225 42.2265 15.267 42.3289 15.267C42.2265 15.351 42.1753 15.4349 42.1241 15.5609ZM46.7818 57.3745C46.7306 57.3325 46.6795 57.3325 46.6795 57.2905C46.833 57.1646 46.9354 57.0386 47.0889 56.9127C47.1401 56.9547 47.1913 56.9547 47.1913 56.9966C47.0377 57.1226 46.8842 57.2485 46.7818 57.3745ZM49.7505 52.7985C50.0064 52.6306 50.1088 52.5466 50.3135 52.3787V52.9664C50.16 52.9244 50.0064 52.8825 49.7505 52.7985ZM51.1324 53.6801C50.8765 53.932 50.6206 54.1839 50.4159 54.4358C50.3647 54.5197 50.4159 54.6457 50.4159 54.7296C50.4159 54.7716 50.2623 54.7716 50.2111 54.8136C49.9552 54.4358 49.9552 54.3098 50.3135 54.016C50.4159 53.932 50.5182 53.89 50.5694 53.806C50.723 53.3862 51.1324 53.2183 51.5419 53.0084C51.6443 53.3023 51.286 53.6381 51.6955 53.806C51.3884 53.974 51.286 53.7641 51.1324 53.6801ZM52.975 52.4207C52.9239 52.3367 52.8727 52.2527 52.8727 52.2527C52.9751 52.1688 53.0774 52.0848 53.1286 52.0428C53.1798 52.0848 53.231 52.0848 53.2822 52.1268C53.1798 52.2107 53.0774 52.2947 52.975 52.4207ZM53.3845 51.4551C53.6404 51.4971 53.794 51.4971 53.9987 51.539C53.6916 51.8329 53.6916 51.8329 53.3845 51.4551ZM60.2943 40.9177C60.2431 40.8757 60.1919 40.8338 60.1408 40.8338C60.3967 40.6658 60.3967 40.33 60.9597 40.33C60.7038 40.5399 60.499 40.7498 60.2943 40.9177ZM61.2156 39.7842C61.1644 39.7422 61.1644 39.7003 61.1132 39.6583C61.1644 39.6163 61.2156 39.5743 61.2668 39.6163C61.318 39.6163 61.3692 39.7003 61.318 39.7422L61.2156 39.7842ZM62.3928 53.4282C62.3928 53.4282 62.3417 53.4282 62.2905 53.4702L62.2393 53.4282C62.2905 53.3862 62.3417 53.3442 62.444 53.3442C62.444 53.3442 62.444 53.3862 62.3928 53.4282ZM65.2591 16.2326C65.1568 16.6524 65.1568 16.6524 64.6961 16.7364C64.9008 16.5264 65.0544 16.4005 65.2591 16.2326ZM64.9008 42.0512C65.0032 41.8833 65.0544 41.7573 65.1056 41.6314C65.1568 41.6314 65.2079 41.6314 65.2079 41.6734C65.3103 41.8413 65.2079 41.9673 64.9008 42.0512ZM64.6449 48.4744C64.6449 48.1385 64.952 48.1385 65.2079 48.0546C65.1568 48.3065 64.9008 48.3904 64.6449 48.4744ZM65.7198 47.9706C65.515 48.1385 65.3615 48.0966 65.1568 48.0546C65.2591 47.8867 65.2079 47.6767 65.4639 47.5928C65.515 47.5928 65.4639 47.4249 65.515 47.3829C65.7198 47.089 65.9757 46.7532 66.2316 46.5013C66.2828 46.4173 66.5899 46.5432 66.8458 46.5852C66.897 46.7951 66.897 46.9631 66.897 47.089C66.5387 47.3829 66.1292 47.6348 65.7198 47.9706ZM66.1804 49.6079C66.1292 49.5659 66.1292 49.44 66.1804 49.356C66.2828 49.1881 66.4363 49.2301 66.5899 49.314C66.5899 49.398 66.6411 49.4819 66.6411 49.5659C66.4875 49.6919 66.334 49.7758 66.1804 49.6079ZM66.6411 49.314C66.7946 49.1881 66.9994 49.0201 67.1529 48.8942C67.2041 49.314 66.8458 49.2301 66.6411 49.314ZM68.1766 45.8715C68.0742 45.9135 68.0742 46.0395 68.023 46.1654C67.8695 46.1654 67.6136 46.2074 67.4088 46.2074C67.3065 45.7456 67.3065 45.7456 67.7159 45.4937C67.6647 45.4517 67.5112 45.3678 67.5112 45.3258C67.5112 45.2838 67.6647 45.1579 67.7159 45.1579C67.9207 45.1998 68.2278 45.2418 68.3301 45.3678C68.4837 45.5357 68.3813 45.7456 68.1766 45.8715ZM73.2949 39.2804C73.2438 39.3224 73.1926 39.3644 73.1926 39.4064C73.039 39.3224 72.9367 39.1965 72.6807 39.0285C73.039 39.0285 73.2438 39.0705 73.2949 39.2804ZM71.7594 43.3107C72.0154 43.3107 72.2201 43.1008 72.476 43.1847C72.476 43.2267 72.5272 43.2687 72.5272 43.3107C72.3225 43.3946 72.1177 43.5206 71.913 43.6045C71.8106 43.6465 71.6571 43.6045 71.6059 43.5626C71.5035 43.4366 71.5547 43.3107 71.7594 43.3107ZM70.9405 39.7003C70.8381 39.8262 70.7358 39.9102 70.6334 40.0361L70.531 39.9521L70.7869 39.5743C70.8381 39.6583 70.8893 39.7003 70.9405 39.7003ZM74.9328 22.6558C74.9328 22.8237 74.984 22.9076 74.984 23.0336C74.6769 22.9496 74.7281 22.8237 74.9328 22.6558ZM75.4447 19.717C75.4958 19.885 75.5982 20.0109 75.5982 20.1369C75.6494 20.3468 75.6494 20.5987 75.3423 20.7666C74.8305 21.1024 74.6769 21.3963 74.7793 21.9001H73.9091V21.0605C74.9328 20.9765 74.984 20.2208 75.4447 19.717ZM73.9091 18.0798C74.0115 18.2057 74.1651 18.3736 74.2163 18.4996C74.2674 18.5416 74.1651 18.6675 74.1139 18.7935C73.7556 18.5835 73.9091 18.3317 73.9091 18.0798ZM73.4997 28.1133C73.5509 28.1553 73.5509 28.1553 73.6021 28.1973L73.3461 28.4072C73.295 28.3652 73.295 28.3652 73.2438 28.3233C73.3461 28.2393 73.3973 28.1553 73.4997 28.1133ZM71.8618 29.2888C72.1177 29.5827 71.9642 29.8346 71.9642 30.1285C72.4248 29.9186 72.6807 29.6247 72.9878 29.3308C73.6532 28.7011 74.2163 27.9874 74.984 27.4416C75.2911 27.2317 75.5982 27.0218 75.9565 26.7699C76.1612 26.9798 75.9053 27.1478 75.7518 27.3157C74.984 28.0294 74.1651 28.7851 73.3973 29.4987C72.7319 30.1285 72.0154 30.7162 71.35 31.3039C71.094 31.22 71.0429 31.136 71.1452 30.9681C71.1964 30.8421 71.2476 30.7162 71.2988 30.6322C71.4012 30.5063 71.5547 30.4223 71.7083 30.2964C71.4523 30.2124 71.35 30.1704 71.094 30.1285C71.35 29.7926 71.6059 29.5407 71.8618 29.2888ZM71.35 30.2964C71.35 30.4223 71.2988 30.5063 71.2988 30.6322C70.9917 30.7162 70.6334 30.8002 70.2751 30.8841C70.5822 30.5903 70.7869 30.2544 71.35 30.2964ZM69.0979 40.33C69.2514 40.4559 69.405 40.5819 69.5074 40.7078C69.4562 40.7498 69.405 40.7918 69.3538 40.8338C69.2003 40.7498 69.0467 40.6658 68.842 40.5819C68.9955 40.4559 69.0467 40.4139 69.0979 40.33ZM69.3538 44.1923C69.2514 44.2343 69.2003 44.2343 69.2003 44.2343C69.1491 44.2343 69.1491 44.1923 69.0979 44.1503C69.1491 44.1083 69.2003 44.0663 69.2514 44.0663C69.3026 44.0663 69.3026 44.1503 69.3538 44.1923ZM68.842 48.3484C68.7908 48.2645 68.7396 48.1805 68.6884 48.0546C68.9443 48.0966 68.9443 48.0966 68.842 48.3484ZM69.0979 47.9706C69.0467 47.9706 68.9955 47.9706 68.9443 47.9706C68.8932 47.8867 68.842 47.8027 68.7908 47.6767C68.9443 47.6767 69.0467 47.6348 69.2003 47.6348C69.2003 47.7607 69.1491 47.8447 69.0979 47.9706ZM69.6609 47.3409C69.5585 47.2569 69.5074 47.173 69.5074 47.131C69.5074 47.089 69.6097 47.047 69.6609 47.005C69.7121 47.005 69.7633 47.047 69.7633 47.089C69.7633 47.2149 69.7121 47.2569 69.6609 47.3409ZM70.7358 44.864C70.3263 45.1579 69.8656 45.4517 69.4562 45.7876C69.1491 45.7876 68.842 45.8296 68.4325 45.8296C69.0979 45.4097 69.9168 45.2418 70.0192 44.4861C70.4287 44.5701 70.6846 44.4442 70.7358 44.1923C70.9917 44.1503 71.1964 44.1503 71.35 44.1083C71.5035 44.0663 71.6571 43.9824 71.8618 43.9404C71.7083 44.4442 71.1452 44.5701 70.7358 44.864ZM73.1414 49.9018C73.2949 49.8178 73.4485 49.7338 73.6532 49.6499C73.7044 50.0277 73.7044 50.0277 73.1414 49.9018ZM73.2438 49.398C72.9878 49.2301 72.8343 48.7683 72.2201 49.0621C72.4248 48.6003 72.4248 48.6003 72.7319 48.8102C72.8343 48.8942 72.9878 49.0202 73.1414 48.8102C73.1926 48.7683 73.4485 48.8102 73.5509 48.8522C73.7556 48.9362 73.9603 49.0621 74.2674 49.1881C73.9603 49.272 73.6021 49.356 73.2438 49.398ZM73.7044 42.9328C73.7556 42.9328 73.8068 42.9748 73.9603 43.0588C73.858 43.1427 73.8068 43.1847 73.7044 43.2267C73.6532 43.2267 73.5509 43.1427 73.5509 43.1008C73.5509 43.0588 73.6021 42.9748 73.7044 42.9328ZM73.6532 42.471C73.7556 42.3031 73.9091 42.2611 74.1651 42.3031C74.0627 42.555 73.858 42.513 73.6532 42.471ZM74.0115 48.4324C73.858 48.5164 73.7044 48.5584 73.4997 48.6423C73.4485 48.6003 73.4485 48.6003 73.3973 48.5584C73.4997 48.4324 73.6021 48.3484 73.7556 48.2225C73.858 48.3065 73.9603 48.3484 74.0115 48.4324ZM73.2438 42.597C73.3973 42.555 73.4997 42.555 73.6532 42.513C73.6532 42.7649 73.4997 42.7229 73.2438 42.597ZM73.5509 42.0932C73.4997 42.0512 73.3461 42.0092 73.1926 41.9253C73.6021 41.6314 73.9091 41.3795 74.5745 41.3795C74.1651 41.6314 73.9091 41.8413 73.5509 42.0932ZM74.421 47.005C74.7281 46.7531 74.984 46.7951 75.1376 47.005C75.1887 47.089 75.1887 47.2149 75.1887 47.2569C75.0864 47.3409 74.8816 47.3829 74.8305 47.3409C74.6769 47.2569 74.5745 47.131 74.421 47.005ZM75.1376 48.6423C74.9328 48.3904 74.6769 48.1805 74.9328 47.9286C75.1376 47.6767 75.3935 48.0546 75.7518 47.8867C75.4958 48.2225 75.2911 48.4324 75.1376 48.6423ZM77.3896 39.3644C77.4408 39.3224 77.3385 39.1545 77.2873 39.0285C77.492 39.1965 77.7479 39.3224 78.055 39.5323C77.9527 39.8682 77.7991 40.288 77.6967 40.6658C77.6967 40.7498 77.7479 40.8757 77.7991 41.0017C77.3385 41.0437 77.2873 40.6658 76.929 40.5399C77.2873 40.1621 77.0313 39.7003 77.3896 39.3644ZM77.1337 47.9706C77.0825 47.8027 77.1337 47.6767 77.3385 47.5928C77.492 47.8447 77.2873 47.8867 77.1337 47.9706ZM77.0313 47.2989C76.9802 47.005 77.1337 46.9211 77.4408 47.047C77.3385 47.131 77.1849 47.2149 77.0313 47.2989ZM77.1849 46.2914C77.4408 46.2914 77.5944 46.2494 77.6967 46.2494C77.6967 46.3333 77.7479 46.3753 77.6967 46.3753C77.5432 46.5432 77.4408 46.5432 77.1849 46.2914ZM77.2873 42.0092C77.3385 41.7573 77.4408 41.6734 77.6456 41.6734C77.6967 41.6734 77.6967 41.7993 77.6967 41.8413C77.5944 41.8833 77.492 41.9253 77.2873 42.0092ZM78.2086 46.3333C78.4133 46.6692 78.4133 46.6692 77.9527 46.8791C77.7479 46.5852 78.2086 46.5432 78.2086 46.3333ZM78.618 43.3526C78.874 43.1427 78.874 43.1427 79.1811 43.3107C78.9763 43.3107 78.8228 43.3526 78.618 43.3526ZM15.7134 17.7859C16.0717 17.8699 16.3788 17.9538 16.6859 18.0378V18.6675C16.993 18.5416 17.2489 18.4576 17.4536 18.3317C17.556 18.2477 17.5048 18.0378 17.556 17.8279C18.0166 18.0798 18.1702 17.7439 18.4773 17.576C18.8356 17.3661 18.7844 17.0722 18.5797 16.7783C19.1939 16.1486 19.8081 15.5189 20.5246 14.8052C20.4734 14.6373 20.3199 14.4274 20.5246 14.1335C20.6782 14.3014 20.8317 14.4694 20.9341 14.5533C20.9341 14.1335 20.8829 13.7137 20.8829 13.2939C20.064 13.5877 19.7057 14.3014 18.7844 14.3434C18.4773 14.5953 18.2726 14.9312 18.119 15.225C18.0678 15.3929 18.1702 15.6029 18.2214 15.8547C18.1702 15.8547 18.0678 15.8967 17.9655 15.9387C17.9143 16.1906 18.1702 16.5264 17.7607 16.7364C17.1977 16.5684 17.6583 16.1066 17.3001 15.8547C17.0441 16.0647 16.8906 16.2746 16.6347 16.4005C16.2252 16.6524 16.1228 16.9463 16.3276 17.3241C16.3276 17.3661 16.3276 17.4081 16.2764 17.492C16.1228 17.492 15.9693 17.45 15.8669 17.45V17.1142C15.3551 17.2401 15.3551 17.2821 15.611 17.576C15.6622 17.618 15.7134 17.7439 15.7134 17.7859ZM73.4997 52.6725C73.6532 52.7565 73.8068 52.7985 74.0115 52.8825C73.8068 53.0504 73.6532 53.1763 73.4997 53.3023C73.7044 53.4702 73.9091 53.3862 73.9603 53.1763C74.2163 52.5886 74.6769 52.1268 75.1376 51.623C75.4447 51.2872 75.7518 50.9093 75.5982 50.4475C75.9053 50.2796 76.2124 50.1537 76.4683 49.9857C76.7243 49.8178 76.8778 49.5659 77.0313 49.314C77.1849 49.1041 77.2873 48.8522 77.3896 48.6423C76.8778 48.5584 76.5707 48.6843 76.366 48.9782C75.9053 49.6079 75.4447 50.2376 74.9328 50.8254C74.6257 51.2032 74.4722 51.665 74.0115 51.9589C74.0115 52.0848 74.0115 52.2527 73.9091 52.3367C73.9091 52.5466 73.7044 52.5886 73.4997 52.6725ZM16.2764 18.2057C16.1228 18.2477 15.9181 18.2897 15.8669 18.2477C15.6622 18.0378 15.4063 18.1217 15.2015 18.1637C15.0992 18.0378 14.9968 17.9538 14.9456 17.8279C14.8433 17.9118 14.7409 17.9958 14.6385 18.1217C15.0992 18.4576 15.5598 18.7095 15.9693 18.9614C16.4299 18.8354 16.174 18.4996 16.2764 18.2057ZM74.1651 30.1285C73.9603 30.3384 73.8068 30.5063 73.6021 30.7162C73.5509 30.7582 73.5509 30.8421 73.5509 30.9261C73.6021 30.9261 73.6532 30.9681 73.6532 30.9681C74.3186 30.3384 75.0352 29.7086 75.7006 29.0789C75.6494 29.0369 75.5982 28.995 75.547 28.953C75.2911 29.1629 75.0352 29.3728 74.7793 29.5827C74.5745 29.7506 74.3698 29.9605 74.1651 30.1285ZM10.9021 19.2972C10.8509 19.3392 10.8509 19.3392 10.9021 19.2972C10.9021 19.3392 10.9021 19.3392 10.9021 19.2972ZM10.7486 19.5491C10.7997 19.5071 10.8509 19.4232 10.9021 19.3392C10.595 19.3812 10.2879 19.3812 9.98081 19.4232C10.1855 19.843 9.67371 19.927 9.52015 20.1369C9.31542 20.0949 9.16187 20.0529 8.95713 20.0109C8.90595 20.2208 8.85477 20.3887 8.80358 20.6406C9.00832 20.5567 9.16187 20.5567 9.26424 20.5147C9.72489 20.1788 10.2367 19.843 10.7486 19.5491ZM64.2355 52.5466C64.4914 52.5466 64.5937 52.5466 64.6449 52.5046C65.2079 52.3367 65.4639 51.8749 65.9245 51.623C66.0269 51.581 66.0781 51.4551 66.2316 51.2872C65.3615 51.4971 64.9008 52.0428 64.2355 52.5466ZM66.5899 51.0772C67.3065 50.8254 68.1766 50.2796 68.3813 49.9018C67.9207 49.9018 67.2041 50.3636 66.5899 51.0772ZM10.4415 36.5516C11.2092 36.3837 11.8746 35.712 11.5163 35.3342C11.3116 35.5021 11.1068 35.67 10.9533 35.8799C10.7486 36.0898 10.595 36.2997 10.4415 36.5516ZM33.3717 14.4694C33.3205 14.8052 33.2182 15.0571 33.167 15.309C33.2694 15.4769 33.4229 15.6868 33.5253 15.8967C33.8324 15.225 33.8836 15.0151 33.3717 14.4694ZM7.83109 36.2578C7.31926 36.1738 7.06334 36.2997 6.85861 36.5936C6.75624 36.7615 6.5515 36.9295 6.34677 37.1394C7.06334 36.9715 7.37044 36.5936 7.83109 36.2578ZM9.16187 36.4257C9.46897 36.1318 9.46897 36.0898 8.95713 35.8379C8.49648 36.2997 8.49648 36.3417 8.80358 36.7196C8.90595 36.5936 9.0595 36.5097 9.16187 36.4257ZM11.1068 34.2846C11.2092 34.4106 11.3116 34.4945 11.4651 34.6205C11.6699 34.4106 11.8234 34.2427 12.0282 34.0327C11.3628 33.9068 11.3628 33.9068 11.1068 34.2846ZM78.9251 45.9555C79.1811 46.0395 79.3346 46.1234 79.6417 46.2074C79.5394 45.8715 79.5393 45.5357 79.2834 45.2418C79.1299 45.5357 79.0275 45.7456 78.9251 45.9555ZM2.40563 39.0705C2.71273 38.8186 2.76392 38.4408 2.45681 38.1469C2.30326 38.4828 1.89379 38.7767 2.40563 39.0705ZM22.4184 61.0269C22.2137 61.1528 22.1625 61.4047 22.009 61.6566C22.2649 61.6146 22.4696 61.6146 22.6743 61.5726C22.572 61.4887 22.4696 61.4467 22.3672 61.4047C22.572 61.1528 22.7255 60.9009 22.9303 60.5651C22.572 60.6071 22.572 60.9009 22.4184 61.0269ZM11.6187 18.8774C11.5675 18.7515 11.4651 18.6255 11.4139 18.4576C11.0045 18.6675 11.0557 19.0034 10.9021 19.2972C11.2604 19.2972 11.4651 19.1293 11.6187 18.8774ZM10.8509 34.7464C10.6462 34.7464 10.4415 34.7884 10.2367 34.7884C10.2367 35.0403 10.032 35.2082 10.2367 35.4181C10.4415 35.2082 10.6974 35.0403 10.9021 34.8304C10.9021 34.7884 10.9021 34.7464 10.8509 34.7464ZM6.39795 47.2989C7.06334 47.089 7.06334 47.047 6.70505 46.5432C6.5515 46.7951 6.50032 47.005 6.39795 47.2989ZM18.3237 19.885C18.2214 19.5911 18.1702 19.3812 18.0678 19.0453C17.9655 19.2133 17.8631 19.3392 17.8119 19.4652C17.9655 19.5911 18.0166 19.801 18.3237 19.885ZM18.5285 19.0034C18.5797 19.0453 18.7844 19.0453 18.8356 19.0034C19.0403 18.8354 18.8868 18.7095 18.682 18.5835C18.5285 18.7095 18.4261 18.8354 18.5285 19.0034ZM30.2495 62.8321C30.5054 62.7061 30.7102 62.6222 30.9661 62.4542C30.4031 62.2443 30.4031 62.2443 30.2495 62.8321ZM75.8029 24.9647C75.8541 24.6709 76.6219 24.9647 76.4172 24.419C76.11 24.5869 75.8029 24.6709 75.8029 24.9647ZM77.2361 27.1478C77.0313 27.3577 76.929 27.5256 76.7243 27.7355C77.1337 27.7355 77.1337 27.7355 77.2361 27.1478ZM78.4133 42.0092C78.618 42.0512 78.7204 42.0932 78.874 42.1352C78.9763 41.9673 79.0787 41.8413 79.1299 41.7154C78.8228 41.6314 78.6692 41.8413 78.4133 42.0092ZM51.2348 16.5264C51.1324 16.5264 51.0301 16.5264 50.9277 16.5684C50.6718 16.6524 50.4671 16.7783 50.2111 16.8623C50.6206 16.9043 50.9277 16.7783 51.2348 16.5264ZM67.6136 16.4005C67.46 16.6944 67.3576 16.9463 67.2553 17.1982C67.2041 17.2821 67.2553 17.3661 67.3065 17.45C67.3577 17.1142 67.8695 16.8623 67.6136 16.4005ZM10.2367 35.4601C9.98081 35.5861 9.72489 35.712 9.41779 35.8379C9.77607 35.9639 9.98081 35.8799 10.2367 35.4601ZM10.2879 35.4181C10.2367 35.4181 10.2367 35.4181 10.2879 35.4181V35.4181ZM71.2988 52.2947C71.35 52.2947 71.4012 52.2947 71.4523 52.2947C71.5035 52.1688 71.5547 52.0428 71.6059 51.8749C71.5035 51.8749 71.2476 51.8749 71.2476 51.9589C71.1964 52.0848 71.2476 52.2108 71.2988 52.2947ZM15.9181 21.3543C16.174 21.3543 16.3788 21.1864 16.5323 20.9765C16.3276 21.0605 16.1228 21.1444 15.9181 21.2704C15.8669 21.2704 15.9181 21.3123 15.9181 21.3543ZM38.5413 58.1721C38.5925 58.1721 38.6436 58.2141 38.6948 58.2141C38.746 58.0882 38.7972 57.9202 38.7972 57.7943C38.6436 57.8783 38.4389 57.9622 38.5413 58.1721ZM31.3244 62.4962C31.6315 62.4542 31.8874 62.4962 31.9898 62.2024C31.6827 62.1184 31.5291 62.2443 31.3244 62.4962ZM34.1907 17.9538L33.9859 18.4156C34.293 18.3317 34.3954 18.2057 34.1907 17.9538ZM13.2566 53.4702C13.103 53.4282 12.9495 53.4282 12.7959 53.3862C12.9495 53.6801 12.9495 53.6801 13.2566 53.4702ZM13.2566 53.4702C13.2566 53.4282 13.2566 53.4282 13.2566 53.4702V53.4702ZM71.8618 52.2107C72.1177 52.0008 72.1177 52.0008 71.9642 51.749C71.913 51.9589 71.8618 52.0848 71.8618 52.2107ZM74.0627 52.0428C73.858 51.8749 73.5509 51.8749 73.2949 51.9169C73.4997 52.0008 73.7556 52.2107 74.0627 52.0428ZM76.8778 23.7473C76.6731 23.7893 76.5195 23.8732 76.2636 23.9572C76.7243 23.9992 76.7243 23.9992 76.8778 23.7473ZM16.7882 56.6188V56.3669C16.6347 56.4509 16.5323 56.5348 16.2764 56.6608H16.7882V56.6188ZM12.54 52.0848C12.4888 52.0848 12.4376 52.0428 12.4376 52.0848C12.3353 52.1688 12.2841 52.2527 12.1817 52.3367L12.3353 52.3787C12.4376 52.2947 12.4888 52.1688 12.54 52.0848ZM39.0531 58.7599C39.0019 58.8018 39.1043 58.9278 39.1043 59.0118C39.1555 59.0118 39.2067 58.9698 39.2578 58.9698C39.2578 58.9278 39.2578 58.8858 39.2067 58.8438C39.2578 58.6759 39.1555 58.6339 39.0531 58.7599ZM74.3186 51.3711C74.421 51.2872 74.4722 51.2032 74.5745 51.1192C74.5234 51.0772 74.5234 51.0772 74.4722 51.0353C74.3698 51.1192 74.2674 51.2032 74.1651 51.2872C74.2162 51.2872 74.2674 51.3291 74.3186 51.3711ZM79.1299 41.7154C79.0275 41.5894 79.1299 41.2956 78.7716 41.3795C78.9251 41.4635 79.0275 41.5894 79.1299 41.7154ZM2.25208 25.2166C2.2009 25.2166 2.14971 25.1746 2.14971 25.1746C2.09853 25.2166 2.04734 25.2166 2.04734 25.2586C2.09853 25.3006 2.14971 25.3006 2.14971 25.3006C2.2009 25.3006 2.25208 25.2586 2.25208 25.2166ZM63.8772 52.8405C63.826 52.8825 63.7748 52.9244 63.7236 52.9664C63.7748 53.0084 63.826 53.0084 63.8772 53.0504C63.9283 52.9664 63.9795 52.9244 63.9795 52.8825C63.9795 52.8825 63.8772 52.7985 63.8772 52.8405ZM16.0717 16.2326C16.0717 16.1906 16.0205 16.1486 16.0205 16.1066C15.9693 16.1066 15.9181 16.1486 15.9181 16.1486C15.9181 16.1906 15.9693 16.2326 15.9693 16.2746C16.0205 16.2746 16.0717 16.2326 16.0717 16.2326ZM14.8944 22.4039H14.8433C14.8433 22.4039 14.8433 22.4039 14.8944 22.4039C14.8433 22.4039 14.8433 22.4039 14.8944 22.4039ZM15.0992 22.3199C15.048 22.3619 14.9968 22.3619 14.8944 22.4039C14.9456 22.4039 15.048 22.4039 15.0992 22.4039C15.0992 22.3619 15.0992 22.3199 15.0992 22.3199ZM76.2124 24.0831C75.9565 24.0411 75.8029 23.9992 75.6494 23.9992C75.7518 24.0831 75.9053 24.2091 76.2124 24.0831ZM1.22841 26.2662C1.17722 26.2662 1.12604 26.2242 1.07486 26.2242C1.07486 26.2662 1.02367 26.3081 1.02367 26.3081C1.07486 26.3501 1.12604 26.3501 1.17722 26.3921C1.17722 26.3501 1.17722 26.3081 1.22841 26.2662ZM6.65387 37.6432C6.70505 37.6432 6.70505 37.6851 6.75624 37.6851C6.80742 37.6432 6.80742 37.6012 6.85861 37.6012C6.80742 37.6012 6.75624 37.5592 6.75624 37.5592C6.75624 37.5592 6.70505 37.6012 6.65387 37.6432ZM58.81 55.0235C58.8612 55.0655 58.8612 55.1075 58.9123 55.1075C58.9635 55.1075 59.0147 55.0655 59.0659 55.0655C58.9635 54.9815 58.9123 54.9815 58.9123 54.9815C58.9123 54.9395 58.8612 54.9815 58.81 55.0235ZM71.2988 51.623C71.4012 51.749 71.5035 51.8329 71.6059 51.8749C71.5547 51.707 71.5547 51.665 71.2988 51.623ZM11.6699 30.3804C11.721 30.3804 11.721 30.3804 11.6699 30.3804V30.3804ZM11.3628 30.4223C11.5163 30.3804 11.6187 30.3804 11.6699 30.3384C11.6187 30.2544 11.6187 30.1704 11.5675 30.0025C11.4651 30.2124 11.4139 30.2964 11.3628 30.4223ZM14.485 28.0294C14.485 27.9034 14.485 27.7355 14.4338 27.6096C14.3826 27.7355 14.3826 27.9034 14.3314 28.0294C14.3826 27.9874 14.4338 28.0294 14.485 28.0294Z" fill="#a8b3ab"></path><path fill-rule="evenodd" clip-rule="evenodd" d="M62.4459 20.039C62.3646 20.0389 62.2841 20.0233 62.2086 19.993L57.3611 18.05C57.244 18.0032 57.1431 17.9227 57.071 17.8187C56.9989 17.7146 56.9587 17.5914 56.9555 17.4645C56.9523 17.3376 56.9862 17.2126 57.0529 17.1049C57.1196 16.9973 57.2163 16.9117 57.3309 16.8589C57.8075 16.638 58.1818 16.2414 58.3769 15.7508C58.4759 15.4996 58.5248 15.2312 58.5207 14.961C58.5167 14.6908 58.4598 14.424 58.3534 14.1759C58.2469 13.9279 58.0929 13.7034 57.9003 13.5153C57.7076 13.3272 57.4801 13.1792 57.2306 13.0798C56.7274 12.8782 56.1653 12.8859 55.6678 13.1013C55.1702 13.3167 54.7778 13.7222 54.5767 14.2288C54.4783 14.4703 54.4281 14.7289 54.429 14.99C54.4299 15.251 54.4818 15.5093 54.5819 15.7501C54.6317 15.8678 54.6459 15.9976 54.6226 16.1234C54.5993 16.2491 54.5395 16.365 54.4509 16.4566C54.3623 16.5482 54.2487 16.6113 54.1245 16.6379C54.0004 16.6646 53.8711 16.6536 53.7532 16.6064L48.887 14.6582C48.8084 14.6268 48.7368 14.5801 48.6762 14.5207C48.6155 14.4614 48.5671 14.3906 48.5337 14.3124C48.5002 14.2342 48.4824 14.1501 48.4813 14.065C48.4801 13.9798 48.4957 13.8953 48.527 13.8162L50.0262 10.0176C49.6077 10.0153 49.1934 9.93378 48.8047 9.77736C48.3513 9.59393 47.9435 9.31215 47.6103 8.95204C47.2771 8.59194 47.0267 8.16234 46.8769 7.69377C46.7271 7.2252 46.6816 6.72914 46.7435 6.24084C46.8054 5.75253 46.9734 5.28396 47.2353 4.8684C47.4973 4.45284 47.8469 4.10049 48.2592 3.83637C48.6716 3.57225 49.1366 3.40285 49.6213 3.34019C50.106 3.27753 50.5984 3.32315 51.0636 3.47382C51.5288 3.62449 51.9554 3.87651 52.313 4.21197L53.8162 0.408228C53.8474 0.329138 53.8938 0.257027 53.9527 0.196018C54.0116 0.13501 54.0819 0.0863 54.1595 0.0526751C54.2372 0.0190502 54.3206 0.00116958 54.4051 5.54818e-05C54.4896 -0.00105861 54.5735 0.0146158 54.6519 0.0461824L66.7977 4.90951C67.2673 5.09823 67.6434 5.4668 67.8437 5.93446C68.044 6.40211 68.0521 6.93068 67.8662 7.40432L63.0444 19.6264C62.9974 19.7479 62.9152 19.8522 62.8084 19.9258C62.7016 19.9994 62.5752 20.0389 62.4459 20.039ZM58.9099 17.2786L62.0852 18.5494L66.6697 6.92893C66.7282 6.77449 66.7246 6.60316 66.6597 6.45137C66.5947 6.29957 66.4735 6.17929 66.3219 6.11611L54.7741 1.48918L53.0845 5.77997C53.038 5.89835 52.9578 6.00028 52.854 6.073C52.7503 6.14573 52.6275 6.18602 52.5012 6.18886C52.3748 6.19169 52.2504 6.15693 52.1435 6.08893C52.0367 6.02093 51.9521 5.9227 51.9003 5.80652C51.7341 5.43964 51.4645 5.13005 51.125 4.91624C50.7856 4.70244 50.3913 4.59383 49.9911 4.60393C49.5909 4.61403 49.2024 4.74238 48.874 4.97304C48.5456 5.2037 48.2918 5.52649 48.144 5.9013C47.9962 6.27611 47.961 6.68641 48.0428 7.0812C48.1245 7.476 48.3197 7.83788 48.6039 8.12187C48.8881 8.40587 49.249 8.59946 49.6415 8.67857C50.0341 8.75769 50.441 8.71885 50.8119 8.56688C50.9286 8.51846 51.0569 8.50574 51.1808 8.5303C51.3046 8.55487 51.4186 8.61563 51.5084 8.705C51.5982 8.79438 51.6599 8.90841 51.6858 9.03289C51.7117 9.15736 51.7007 9.28677 51.6541 9.40496L49.9594 13.6919L53.143 14.9671C53.1452 14.42 53.28 13.8817 53.5358 13.399C53.7915 12.9163 54.1605 12.5039 54.6105 12.1976C55.0605 11.8912 55.578 11.7003 56.118 11.6414C56.6579 11.5824 57.204 11.6573 57.7087 11.8594C58.2134 12.0615 58.6614 12.3847 59.0139 12.801C59.3663 13.2173 59.6125 13.7141 59.7309 14.248C59.8494 14.782 59.8366 15.337 59.6936 15.8649C59.5506 16.3927 59.2818 16.8774 58.9105 17.2767L58.9099 17.2786ZM60.1544 25.2695H54.7633C55.0546 24.6438 55.1845 23.9541 55.1408 23.2644C55.0971 22.5747 54.8812 21.9073 54.5133 21.324C54.1453 20.7407 53.6372 20.2604 53.0359 19.9277C52.4346 19.5949 51.7597 19.4204 51.0737 19.4204C50.3877 19.4204 49.7127 19.5949 49.1115 19.9277C48.5102 20.2604 48.002 20.7407 47.6341 21.324C47.2661 21.9073 47.0503 22.5747 47.0066 23.2644C46.9629 23.9541 47.0927 24.6438 47.3841 25.2695H42.5687V19.2086C42.5692 19.0809 42.5322 18.9558 42.4623 18.8492C42.3924 18.7426 42.2928 18.6592 42.1759 18.6095C42.0591 18.5598 41.9303 18.546 41.8057 18.5699C41.6811 18.5937 41.5663 18.6542 41.4758 18.7436C40.9582 19.2463 40.266 19.5252 39.5471 19.5208C38.8091 19.5208 38.1014 19.2255 37.5795 18.6998C37.0577 18.1741 36.7646 17.4612 36.7646 16.7177C36.7646 15.9743 37.0577 15.2613 37.5795 14.7356C38.1014 14.21 38.8091 13.9146 39.5471 13.9146C40.2665 13.9111 40.9587 14.1912 41.4758 14.6951C41.5663 14.7845 41.6811 14.8449 41.8057 14.8688C41.9303 14.8927 42.0591 14.8789 42.1759 14.8292C42.2928 14.7795 42.3924 14.6961 42.4623 14.5895C42.5322 14.4828 42.5692 14.3578 42.5687 14.23V7.51504C42.5687 7.34327 42.501 7.17853 42.3804 7.05707C42.2598 6.93561 42.0963 6.86737 41.9258 6.86737H25.2675C24.668 6.86651 24.0926 7.10521 23.6675 7.53113C23.2424 7.95705 23.0024 8.53542 23 9.13939V42.7215C23.0014 43.3264 23.2409 43.906 23.666 44.3332C24.0911 44.7604 24.6671 45.0002 25.2675 45H58.5969C59.1958 44.9986 59.7696 44.7579 60.1925 44.3307C60.6153 43.9035 60.8526 43.3248 60.8522 42.7215V26.0356C60.8598 25.9958 60.8637 25.9551 60.8637 25.914C60.8637 25.7422 60.7959 25.5775 60.6754 25.4561C60.5548 25.3346 60.3913 25.2664 60.2208 25.2664H60.215C60.1947 25.2664 60.1745 25.2675 60.1544 25.2695ZM53.1387 25.416C53.1228 25.4293 53.1076 25.4434 53.0929 25.4583C52.974 25.5794 52.9072 25.7426 52.9069 25.9128L52.9069 25.921C52.9079 26.0921 52.9761 26.2559 53.0965 26.3765C53.217 26.4971 53.3799 26.5648 53.5498 26.5648C53.5716 26.5649 53.5933 26.5638 53.615 26.5616H59.5664V42.7215C59.567 42.9813 59.4652 43.2307 59.2834 43.415C59.1017 43.5993 58.8548 43.7035 58.5969 43.7047H42.5777V38.8355C43.1162 39.0927 43.7094 39.2296 44.3162 39.2294C44.9824 39.2287 45.6382 39.0634 46.2262 38.7479C46.8142 38.4324 47.3163 37.9764 47.6886 37.4198C48.0609 36.8633 48.2919 36.2232 48.3614 35.5558C48.431 34.8883 48.3368 34.2139 48.0874 33.5916C47.8379 32.9694 47.4407 32.4183 46.9305 31.9867C46.4204 31.5551 45.8129 31.2562 45.1614 31.1162C44.5098 30.9763 43.8342 30.9995 43.1936 31.1838C42.9801 31.2453 42.7727 31.324 42.5733 31.4189V26.5597H48.6062C48.7327 26.5593 48.8562 26.5213 48.9613 26.4506C49.0664 26.3798 49.1485 26.2794 49.1973 26.1619C49.2461 26.0444 49.2594 25.915 49.2356 25.7899C49.2117 25.6648 49.1518 25.5496 49.0633 25.4586C48.563 24.9449 48.2855 24.2521 48.2918 23.5325C48.2925 23.0748 48.4044 22.6242 48.6178 22.2201C48.8312 21.816 49.1396 21.4707 49.516 21.2143C49.8924 20.958 50.3254 20.7984 50.7771 20.7495C51.2289 20.7006 51.6856 20.7639 52.1075 20.9339C52.5293 21.1038 52.9035 21.3753 53.1972 21.7245C53.4909 22.0737 53.6953 22.49 53.7924 22.9372C53.8896 23.3843 53.8766 23.8486 53.7546 24.2895C53.6386 24.7083 53.4277 25.0939 53.1387 25.416ZM41.5406 33.1542C41.5179 33.1368 41.4962 33.1177 41.4758 33.0971C41.3552 32.9757 41.2875 32.8109 41.2875 32.6392V26.5617H36.4794C36.7361 27.1059 36.8713 27.7062 36.8678 28.32C36.8651 29.4064 36.4351 30.4474 35.6719 31.215C34.9088 31.9826 33.8747 32.4142 32.7963 32.4152C31.9972 32.4155 31.2158 32.1784 30.5497 31.7337C29.8835 31.2891 29.3623 30.6565 29.0511 29.915C28.7398 29.1736 28.6524 28.3562 28.7997 27.5649C28.8645 27.2174 28.9732 26.8817 29.122 26.5656H24.2858V42.7215C24.287 42.9829 24.391 43.2332 24.575 43.4174C24.759 43.6017 25.0081 43.705 25.2675 43.7047H41.2919V37.7258C41.2844 37.6894 41.2801 37.6524 41.2789 37.615C41.2763 37.5286 41.2908 37.4425 41.3217 37.3618C41.3526 37.2811 41.3992 37.2075 41.4588 37.1452C41.5184 37.083 41.5898 37.0334 41.6687 36.9994C41.7476 36.9654 41.8325 36.9477 41.9183 36.9472C42.0042 36.9468 42.0892 36.9637 42.1685 36.9969C42.1787 37.0012 42.1888 37.0057 42.1988 37.0105C42.2691 37.0424 42.3338 37.0871 42.3894 37.1431C42.4038 37.1576 42.4175 37.1728 42.4304 37.1885C42.8137 37.5423 43.2883 37.7811 43.8004 37.877C44.3353 37.9771 44.8876 37.9169 45.3888 37.7039C45.89 37.4909 46.3182 37.1344 46.6203 36.6786C46.9223 36.2228 47.085 35.6877 47.0882 35.1397C47.0913 34.5916 46.9347 34.0547 46.6379 33.5955C46.341 33.1362 45.9169 32.7748 45.4182 32.556C44.9194 32.3372 44.3679 32.2706 43.8319 32.3645C43.2959 32.4584 42.7991 32.7087 42.403 33.0843C42.315 33.1789 42.2009 33.2448 42.0754 33.2734C41.95 33.302 41.8188 33.292 41.699 33.2447C41.6419 33.2221 41.5886 33.1916 41.5406 33.1542ZM30.8014 26.3693C30.84 26.3284 30.8728 26.2831 30.8993 26.2345C30.9526 26.1386 30.9813 26.0298 30.9813 25.9179C30.9813 25.7461 30.9136 25.5814 30.793 25.4599C30.6725 25.3385 30.509 25.2703 30.3384 25.2703H24.2858V9.13939C24.2878 8.87885 24.3923 8.62976 24.5763 8.44669C24.7604 8.26362 25.0089 8.1615 25.2675 8.16271H41.2829V13.0027C40.6629 12.7106 39.9798 12.5807 39.2967 12.6252C38.6137 12.6697 37.9529 12.8871 37.3754 13.2573C36.7979 13.6274 36.3225 14.1384 35.9931 14.7428C35.6637 15.3472 35.491 16.0256 35.491 16.7151C35.491 17.4047 35.6637 18.083 35.9931 18.6875C36.3225 19.2919 36.7979 19.8029 37.3754 20.173C37.9529 20.5431 38.6137 20.7605 39.2967 20.805C39.9798 20.8495 40.6629 20.7197 41.2829 20.4276V25.2664H35.3688C35.3341 25.2594 35.2988 25.2554 35.2632 25.2544C35.1766 25.2518 35.0904 25.2669 35.0098 25.2987C34.9292 25.3306 34.8557 25.3785 34.7939 25.4396C34.7321 25.5007 34.6832 25.5738 34.6501 25.6544C34.6171 25.7351 34.6005 25.8216 34.6015 25.9089C34.6024 25.9961 34.6208 26.0823 34.6557 26.1622C34.6905 26.2421 34.741 26.314 34.8041 26.3738C35.3076 26.8928 35.5872 27.5911 35.582 28.3168C35.5807 29.0607 35.2864 29.7737 34.7637 30.2992C34.2411 30.8247 33.5328 31.1199 32.7944 31.1199C32.2482 31.1198 31.7142 30.9575 31.259 30.6534C30.8038 30.3493 30.4476 29.9168 30.235 29.41C30.0224 28.9032 29.9627 28.3445 30.0634 27.8037C30.1642 27.2629 30.4208 26.764 30.8014 26.3693Z" fill="#a8b3ab">
</path>
</svg>